<svg width="128" height="128" viewBox="0 0 128 128" fill="none" xmlns="http://www.w3.org/2000/svg">
  <rect width="128" height="128" rx="32" fill="url(#bg)"/>
  <path d="M64 24C42.908 24 26 40.908 26 62C26 78.205 36.094 91.977 50.349 97.478C52.469 98.296 54 96.52 54 94.394V83.774C46.786 85.244 42.221 81.874 39.746 77.912C38.526 75.974 36.474 73.95 34.28 72.768C32.516 71.822 32.349 70.439 34.156 70.396C38.301 70.31 41.247 74.061 42.241 75.624C45.058 80.275 49.564 79.029 52.63 77.94C53.104 74.946 54.437 72.905 55.985 71.738C43.308 70.284 30.105 64.992 30.105 43.444C30.105 37.298 32.288 32.239 35.845 28.287C35.27 26.863 33.419 21.322 36.421 13.825C36.421 13.825 42.165 11.987 54.438 20.249C57.993 19.301 61.79 18.818 65.588 18.818C69.385 18.818 73.183 19.301 76.738 20.249C89.011 11.945 94.755 13.825 94.755 13.825C97.756 21.322 95.906 26.863 95.33 28.287C98.888 32.239 101.071 37.255 101.071 43.444C101.071 65.034 87.825 70.284 75.148 71.738C77.073 73.348 78.747 76.45 78.747 81.255V94.48C78.747 96.563 80.278 98.382 82.398 97.564C96.61 92.02 106.747 78.248 106.747 62C106.704 40.908 89.791 24 64 24Z" fill="white"/>
  <path d="M48 47H58V57H48V47Z" fill="#081A37"/>
  <path d="M70 47H80V57H70V47Z" fill="#081A37"/>
  <path d="M59 66H69V86H59V66Z" fill="#081A37"/>
  <defs>
    <linearGradient id="bg" x1="16" y1="12" x2="112" y2="116" gradientUnits="userSpaceOnUse">
      <stop stop-color="#2F79FF"/>
      <stop offset="1" stop-color="#0A1730"/>
    </linearGradient>
  </defs>
</svg>
